<?xml version="1.0" encoding="UTF-8"?>
<svg width="200" height="200" viewBox="0 0 200 200" xmlns="http://www.w3.org/2000/svg">
    <!-- Bakgrund -->
    <circle cx="100" cy="100" r="90" fill="#E3F2FD"/>
    
    <!-- Ansikte -->
    <circle cx="100" cy="100" r="70" fill="#FFE0B2"/>
    
    <!-- Ögon -->
    <circle cx="75" cy="85" r="10" fill="#333"/>
    <circle cx="125" cy="85" r="10" fill="#333"/>
    
    <!-- Glitter i ögonen -->
    <circle cx="78" cy="82" r="3" fill="white"/>
    <circle cx="128" cy="82" r="3" fill="white"/>
    
    <!-- Mun -->
    <path d="M 75 120 Q 100 140 125 120" stroke="#333" fill="none" stroke-width="5"/>
    
    <!-- Hår -->
    <path d="M 30 100 Q 100 30 170 100" stroke="#333" fill="none" stroke-width="15"/>
    
    <!-- Mask -->
    <path d="M 60 75 Q 100 85 140 75" stroke="#2196F3" fill="none" stroke-width="8"/>
    
    <!-- Cape -->
    <path d="M 30 100 Q 100 150 170 100" stroke="#F44336" fill="none" stroke-width="20"/>
    
    <!-- Superhjälte-symbol -->
    <path d="M 85 100 L 115 100 L 100 85 Z" fill="#FFD700"/>
    
    <!-- Nivå 6-märke -->
    <circle cx="100" cy="100" r="30" fill="#4CAF50"/>
    <text x="100" y="110" font-size="24" fill="white" text-anchor="middle">6</text>
    
    <!-- Stjärnor -->
    <circle cx="40" cy="40" r="5" fill="#FFD700"/>
    <circle cx="160" cy="40" r="5" fill="#FFD700"/>
    <circle cx="100" cy="20" r="5" fill="#FFD700"/>
</svg> 