<?xml version="1.0" encoding="UTF-8"?>
<svg width="200" height="200" viewBox="0 0 200 200" xmlns="http://www.w3.org/2000/svg">
    <!-- Bakgrund -->
    <circle cx="100" cy="100" r="90" fill="#1A237E"/>
    
    <!-- Galax -->
    <circle cx="100" cy="100" r="70" fill="#311B92"/>
    <circle cx="100" cy="100" r="50" fill="#4527A0"/>
    <circle cx="100" cy="100" r="30" fill="#512DA8"/>
    
    <!-- Stjärnor -->
    <circle cx="40" cy="40" r="3" fill="#FFD700"/>
    <circle cx="160" cy="40" r="3" fill="#FFD700"/>
    <circle cx="100" cy="20" r="3" fill="#FFD700"/>
    <circle cx="70" cy="70" r="3" fill="#FFD700"/>
    <circle cx="130" cy="70" r="3" fill="#FFD700"/>
    
    <!-- Ansikte -->
    <circle cx="100" cy="100" r="40" fill="#FFE0B2"/>
    
    <!-- Ögon -->
    <circle cx="85" cy="90" r="8" fill="#333"/>
    <circle cx="115" cy="90" r="8" fill="#333"/>
    
    <!-- Glitter i ögonen -->
    <circle cx="87" cy="88" r="2" fill="white"/>
    <circle cx="117" cy="88" r="2" fill="white"/>
    
    <!-- Mun -->
    <path d="M 85 110 Q 100 120 115 110" stroke="#333" fill="none" stroke-width="3"/>
    
    <!-- Universums symbol -->
    <path d="M 100 60 L 120 80 L 100 100 L 80 80 Z" fill="#FFD700"/>
    
    <!-- Nivå 8-märke -->
    <circle cx="100" cy="100" r="30" fill="#4CAF50"/>
    <text x="100" y="110" font-size="24" fill="white" text-anchor="middle">8</text>
</svg> 